<?xml version="1.0" standalone="no"?>
<!DOCTYPE svg PUBLIC "-//W3C//DTD SVG 20010904//EN"
 "http://www.w3.org/TR/2001/REC-SVG-20010904/DTD/svg10.dtd">
<svg version="1.0" xmlns="http://www.w3.org/2000/svg"
 width="45.000000pt" height="45.000000pt" viewBox="0 0 96.000000 96.000000"
 preserveAspectRatio="xMidYMid meet">

<g transform="translate(0.000000,96.000000) scale(0.100000,-0.100000)"
fill="#000000" stroke="none">
<path d="M27 823 c-4 -3 -7 -150 -7 -325 l0 -318 226 0 c216 0 227 -1 257 -22
47 -34 121 -36 180 -4 43 23 59 26 153 26 l104 0 -2 323 -3 322 -451 3 c-248
1 -454 -1 -457 -5z m893 -318 c0 -197 -4 -305 -10 -305 -6 0 -10 105 -10 295
l0 295 -420 0 -420 0 0 -295 c0 -190 -4 -295 -10 -295 -6 0 -10 108 -10 305
l0 305 440 0 440 0 0 -305z m-80 240 l-23 -25 -343 0 -342 0 -16 25 -16 25
382 0 381 0 -23 -25z m-710 -253 c0 -205 0 -207 -25 -237 l-24 -30 0 265 0
265 24 -28 c25 -28 25 -29 25 -235z m750 -9 l0 -268 -25 30 c-24 30 -24 32
-25 244 0 207 1 216 22 238 12 13 23 23 25 23 2 0 3 -120 3 -267z m-652 180
c3 -32 2 -33 -37 -33 -40 0 -41 1 -41 36 0 35 1 35 38 32 34 -3 37 -6 40 -35z
m92 2 c0 -33 -2 -35 -35 -35 -33 0 -35 2 -35 35 0 33 2 35 35 35 33 0 35 -2
35 -35z m100 0 c0 -34 -1 -35 -40 -35 -39 0 -40 1 -40 35 0 34 1 35 40 35 39
0 40 -1 40 -35z m100 0 c0 -34 -1 -35 -40 -35 -39 0 -40 1 -40 35 0 34 1 35
40 35 39 0 40 -1 40 -35z m90 0 c0 -33 -2 -35 -35 -35 -33 0 -35 2 -35 35 0
33 2 35 35 35 33 0 35 -2 35 -35z m100 0 c0 -34 -1 -35 -40 -35 -37 0 -40 2
-40 28 0 37 6 42 47 42 31 0 33 -2 33 -35z m98 -2 c3 -32 2 -33 -37 -33 -40 0
-41 1 -41 36 0 35 1 35 38 32 34 -3 37 -6 40 -35z m-580 -85 c-3 -30 -6 -33
-40 -36 -37 -3 -38 -3 -38 32 0 35 1 36 41 36 39 0 40 -1 37 -32z m92 -3 c0
-33 -2 -35 -35 -35 -33 0 -35 2 -35 35 0 33 2 35 35 35 33 0 35 -2 35 -35z
m100 -1 c0 -35 -1 -35 -37 -32 -35 3 -38 6 -41 36 -3 31 -2 32 37 32 40 0 41
-1 41 -36z m98 4 c-3 -30 -6 -33 -40 -36 -37 -3 -38 -3 -38 32 0 35 1 36 41
36 39 0 40 -1 37 -32z m92 -3 c0 -33 -2 -35 -35 -35 -33 0 -35 2 -35 35 0 33
2 35 35 35 33 0 35 -2 35 -35z m100 -1 c0 -35 -1 -35 -37 -32 -35 3 -38 6 -41
36 -3 31 -2 32 37 32 40 0 41 -1 41 -36z m98 4 c-3 -30 -6 -33 -40 -36 -37 -3
-38 -3 -38 32 0 35 1 36 41 36 39 0 40 -1 37 -32z m-580 -85 c3 -32 2 -33 -37
-33 -40 0 -41 1 -41 36 0 35 1 35 38 32 34 -3 37 -6 40 -35z m92 2 c0 -33 -2
-35 -35 -35 -33 0 -35 2 -35 35 0 33 2 35 35 35 33 0 35 -2 35 -35z m100 0 c0
-34 -1 -35 -40 -35 -37 0 -40 2 -40 28 0 37 6 42 47 42 31 0 33 -2 33 -35z
m98 -2 c3 -32 2 -33 -37 -33 -40 0 -41 1 -41 36 0 35 1 35 38 32 34 -3 37 -6
40 -35z m92 13 c0 -16 -7 -26 -22 -30 -41 -10 -48 -7 -48 24 0 28 3 30 35 30
30 0 35 -3 35 -24z m100 -11 c0 -37 -9 -42 -57 -29 -15 4 -23 14 -23 28 0 30
7 36 47 36 31 0 33 -2 33 -35z m98 -2 c3 -32 2 -33 -37 -33 -40 0 -41 1 -41
36 0 35 1 35 38 32 34 -3 37 -6 40 -35z m-193 -43 c-3 -5 -13 -10 -21 -10 -8
0 -14 5 -14 10 0 6 9 10 21 10 11 0 17 -4 14 -10z m-27 -58 c-2 -14 -12 -31
-23 -38 -18 -12 -24 -11 -43 2 -30 21 -30 67 1 81 32 14 69 -11 65 -45z m110
5 c4 -31 -28 -52 -64 -43 -32 8 -34 58 -2 80 19 13 25 14 43 2 11 -7 21 -25
23 -39z m-468 13 c0 -28 -2 -30 -40 -30 -38 0 -40 2 -40 30 0 28 2 30 40 30
38 0 40 -2 40 -30z m90 0 c0 -28 -3 -30 -35 -30 -32 0 -35 2 -35 30 0 28 3 30
35 30 32 0 35 -2 35 -30z m100 0 c0 -28 -2 -30 -40 -30 -38 0 -40 2 -40 30 0
28 2 30 40 30 38 0 40 -2 40 -30z m44 5 c-9 -14 -18 -25 -20 -25 -2 0 -4 11
-4 25 0 18 5 25 20 25 20 0 20 -1 4 -25z m346 -5 c0 -27 -3 -30 -30 -30 -19 0
-33 7 -40 19 -17 33 -11 41 30 41 38 0 40 -2 40 -30z m-340 -46 c-18 -21 -24
-10 -8 15 7 12 14 17 16 11 2 -6 -2 -17 -8 -26z m264 11 c3 -8 1 -15 -4 -15
-6 0 -10 7 -10 15 0 8 2 15 4 15 2 0 6 -7 10 -15z m-506 -52 c3 -32 2 -33 -37
-33 -40 0 -41 1 -41 36 0 35 1 35 38 32 34 -3 37 -6 40 -35z m92 2 c0 -33 -2
-35 -35 -35 -33 0 -35 2 -35 35 0 33 2 35 35 35 33 0 35 -2 35 -35z m100 0 c0
-34 -1 -35 -40 -35 -39 0 -40 1 -40 35 0 34 1 35 40 35 39 0 40 -1 40 -35z
m388 -3 c3 -27 0 -32 -17 -32 -17 0 -21 6 -21 36 0 28 3 35 18 32 11 -2 18
-14 20 -36z m-290 12 c29 -20 28 -50 -2 -69 -23 -15 -27 -15 -50 0 -33 22 -34
58 -3 73 30 14 29 14 55 -4z m103 6 c26 -14 25 -61 -2 -78 -17 -11 -25 -11
-45 3 -31 20 -32 58 -1 73 28 14 25 14 48 2z m110 0 c27 -15 24 -56 -5 -75
-20 -14 -28 -14 -45 -3 -26 16 -27 56 -3 74 21 16 28 17 53 4z m-298 -87 c2
-10 8 -26 12 -35 7 -17 -5 -18 -174 -18 l-182 0 27 35 26 35 143 0 c127 0 143
-2 148 -17z m410 -19 l29 -34 -67 0 c-36 0 -64 4 -61 9 3 4 10 20 15 35 15 37
49 33 84 -10z m-253 -24 c0 -35 -38 -57 -69 -41 -29 16 -29 64 2 78 33 15 67
-4 67 -37z m81 37 c9 -7 18 -25 21 -40 4 -23 1 -31 -17 -39 -50 -23 -91 45
-47 78 21 16 23 16 43 1z m-191 -23 c0 -20 -7 -17 -20 6 -9 16 -8 18 5 14 8
-4 15 -12 15 -20z m249 -6 c-12 -21 -13 -21 -17 -4 -2 10 2 22 9 27 20 12 22
4 8 -23z m-116 -65 c-7 -2 -19 -2 -25 0 -7 3 -2 5 12 5 14 0 19 -2 13 -5z"/>
</g>
</svg>
